<?xml version="1.0" encoding="utf-8"?>
<svg version="1.1" id="Layer_1" xmlns="http://www.w3.org/2000/svg" xmlns:xlink="http://www.w3.org/1999/xlink" x="0px" y="0px"
	 viewBox="0 0 311.6 184.4" enable-background="new 0 0 311.6 184.4" xml:space="preserve">
<g>
	<defs>
		<rect id="SVGID_1_" x="0" y="0" width="311.6" height="184.4"/>
	</defs>
	<clipPath id="SVGID_2_">
		<use xlink:href="#SVGID_1_"  overflow="visible"/>
	</clipPath>
	<path clip-path="url(#SVGID_2_)" fill="#922935" d="M178.1,38.7C178,38.7,178,38.7,178.1,38.7c-0.1,0-0.1,0-0.2,0.1
		c0,0,0,0,0.1,0.1C178,38.8,178,38.8,178.1,38.7 M173.6,52.2C173.7,52.1,173.7,52.1,173.6,52.2c0-0.2,0-0.4,0-0.5
		c-0.1,0-0.2,0-0.3,0.1c0,0.1,0,0.3,0.1,0.4C173.5,52.2,173.6,52.2,173.6,52.2 M138.4,71c0.1-0.1,0.2-0.2,0.2-0.3
		c0-0.1-0.1-0.2-0.2-0.2c-0.1,0-0.2,0.1-0.2,0.2C138.1,70.8,138.3,70.9,138.4,71 M167.5,54.3c0.1,0,0.1,0.1,0.2,0.1
		c0.1-0.2,0.1-0.4,0.3-0.9c-0.2,0.3-0.3,0.3-0.4,0.4C167.6,54,167.6,54.1,167.5,54.3 M179.6,38.2c-0.1-0.1-0.2-0.2-0.3-0.3
		c0,0-0.2,0.1-0.2,0.2c-0.1,0.1-0.1,0.2-0.1,0.3c0,0.1,0.1,0.2,0.2,0.2c0.1,0,0.2-0.1,0.3-0.1C179.5,38.5,179.6,38.4,179.6,38.2
		 M48.8,160.1c-0.3,0.2-0.5,0.4-0.3,0.6c0,0.1,0.2,0.1,0.3,0.1c0.3-0.1,0.2-0.4,0.1-0.6C48.9,160.2,48.9,160.2,48.8,160.1
		 M167.3,55.5c-0.5,0-0.6,0.1-0.7,0.4c0,0,0,0.2,0.1,0.2c0.3,0.1,0.5-0.1,0.6-0.4C167.3,55.7,167.3,55.6,167.3,55.5 M163,25.3
		c0-0.3-0.3-0.7-0.5-0.6c-0.1,0-0.1,0.1-0.2,0.1c-0.1,0.3,0.1,0.6,0.4,0.6C162.9,25.4,163,25.3,163,25.3 M159.7,22.1
		c-0.3-0.2-0.5-0.3-0.7-0.3c-0.3-0.1-0.6,0-0.7,0.2c0,0.3,0.2,0.4,0.4,0.5C159,22.5,159.3,22.6,159.7,22.1 M160,24
		c-0.3-0.4-0.6-0.7-1-0.8c-0.1,0-0.2,0.1-0.3,0.1c0,0-0.1,0.2-0.1,0.2c0.2,0.4,0.5,0.7,0.9,0.7C159.7,24.3,159.8,24.1,160,24
		 M158.3,39.7c-0.5-0.4-0.8-0.5-1.1-0.2c-0.2,0.1-0.3,0.4-0.1,0.9C157.6,40.3,158,40.1,158.3,39.7 M174.2,54.8
		c0.1-0.6,0.1-1.3-0.1-1.9c0-0.1-0.2-0.2-0.3-0.2c-0.1,0-0.2,0.1-0.2,0.2c-0.1,0.7,0,1.3,0.3,1.9C173.9,54.8,174.1,54.8,174.2,54.8
		 M162,22.2c-0.5-0.5-1.2-0.8-1.9-1.2c0.3,0.8,0.8,1.2,1.4,1.5C161.8,22.6,162,22.5,162,22.2 M158.1,25.6c0.5,0.2,0.6,0.3,0.8,0.5
		c0.1,0.1,0.3,0.3,0.5,0.2c0.3-0.1,0.5-0.1,0.8,0.1c0.2,0.1,0.4,0.1,0.5,0.1c0.1,0,0.2-0.1,0.2-0.2c0,0,0-0.2-0.1-0.2
		c-0.1-0.1-0.2-0.1-0.3-0.2c-0.6-0.1-1.2-0.3-1.9-0.4C158.5,25.4,158.3,25.5,158.1,25.6 M160,22.6c0.5,0.5,0.7,0.9,0.5,1.4
		c-0.1,0.4,0.2,0.6,0.9,0.5c0.1-0.4,0.1-0.9,0.2-1.3C161.1,22.9,160.8,22.5,160,22.6 M253.2,136.4c-0.2,1.5,0.5,2.4,1.3,3.3
		c0.2-0.2,0.4-0.3,0.6-0.5C254.5,138.3,253.9,137.5,253.2,136.4 M4.6,151.3c0.8,0.8,0.8,0.8,1.6,0.9c0.6-1.1,0.6-1.1,0.7-1.8
		C6,150.6,5.3,150.8,4.6,151.3 M158.6,31.8c-0.4-0.9-1-1.7-1.1-2.6c0-0.1-0.2-0.2-0.3-0.2c-0.1,0.1-0.3,0.2-0.3,0.3
		c-0.1,0.6-0.1,1.1,0.1,1.7c0.2,0.1,0.4,0.1,0.5,0.2c0.2,0.1,0.2,0.4,0.4,0.5C158,32,158.2,32,158.6,31.8 M58.7,140.3
		c0.1-1.3,0.3-2.3,0.1-3.4c-0.5,0.9-0.9,1.8-1.3,2.8C57.9,139.9,58.2,140,58.7,140.3 M154,47.3c1-0.9,1.3-1.9,1.1-3.2
		c-0.2-1.1-1.1-1.5-2.2-1.2c0,0.4,0,0.8,0,1.1c0.1,0.7,0,1.4,0.5,2C153.7,46.4,153.8,46.8,154,47.3 M11.1,150
		c-0.1,0-0.1-0.1-0.2-0.1c-0.7,0.1-1.4,0.1-2,0.2c-0.2,0-0.4,0.2-0.4,0.3c-0.5,0.8-1,1.5-1.2,2.5c0.5,0.3,1,0.5,1.6,0.5
		C9.8,152.2,10.7,150.8,11.1,150 M260,136.6c0.6-0.3,1.2-0.7,1.6-1.4c-0.4-0.7-1.1-1.1-1.7-1.5c-1.4-0.9-2-1.1-2.8-1.2
		C257.7,133.8,259.2,135.9,260,136.6 M11.1,154.1c0.3-0.5,0.7-1,1-1.5c0.4-0.5,0.8-1,1.1-1.5c0.3-0.5,0.8-0.9,1.1-1.5
		c-0.4,0-0.8,0-1.1,0c-0.6,0-0.9,0.2-1.2,0.7c-0.7,1-1.4,2-2.1,3c-0.1,0.1-0.2,0.3-0.3,0.5C10.2,153.9,10.6,154.2,11.1,154.1
		 M51.4,136.1c0.5,0.4,1,0.8,1.5,1c0.5-0.6,2-3.4,2.3-4.3c0-0.1,0-0.3,0-0.5c-0.9,0.3-1.6,0.7-2.3,1.1c-0.2,0.1-0.3,0.3-0.4,0.4
		C52.2,134.5,51.8,135.3,51.4,136.1 M17.9,149.5c-0.6,0-1.1,0-1.5,0c-0.3,0-0.6,0.1-0.8,0.4c-1.2,1.3-2.3,2.6-3.2,4.1
		c-0.1,0.1-0.1,0.3-0.2,0.5c0.2,0.1,0.4,0.2,0.6,0.2c0.4,0.1,0.7,0.2,1.1,0.2c0.3-0.5,0.5-1,0.8-1.5c0.3-0.5,0.6-0.9,0.9-1.3
		c0.4-0.4,0.8-0.9,1.1-1.3C17.2,150.4,17.6,150.1,17.9,149.5 M266.8,159.9c-1.1-1.6-2.2-3.2-3.3-4.8c-0.1-0.1-0.1-0.2-0.2-0.3
		c0,0-0.1,0-0.1,0c-0.2,0.1-0.2,0.3-0.1,0.5c0.2,1.7,0.2,3.4,0.2,5.2c0,0.1,0.1,0.3,0.1,0.4C264.4,160.7,266.2,160.2,266.8,159.9
		 M307.5,151.4c-0.3-0.4-0.7-0.5-1-0.6c-1.6-0.5-3.3-0.7-5-0.9c-0.1,0-0.2,0.1-0.4,0.2c0.8,1.2,1.8,2.3,2.7,3.3
		C305.6,152.8,306.7,152.2,307.5,151.4 M157.3,69.1c0.5-0.7,0.6-1,0.7-1.9c0.1-0.5,0-1.1,0.2-1.6c0.3-1.1,0.3-2.3,0.4-3.4
		c0-0.8,0-1.7-0.1-2.5c0-0.4-0.2-0.8-0.7-1c-0.1,0-0.3,0-0.4,0c-0.1,0.1-0.1,0.3-0.1,0.4c0.1,0.2,0.2,0.4,0.3,0.6
		c-0.5,1.1-0.7,2.1-0.7,3.3c0,0.8-0.2,1.5,0,2.3c0,0.1-0.1,0.3-0.1,0.4c0,0.3-0.1,0.5-0.1,0.8c0.1,0.7,0.2,1.4,0.4,2.2
		C157.1,68.7,157.2,68.8,157.3,69.1 M302.4,153.7c-0.1-0.1-0.1-0.3-0.2-0.4c-0.8-1.1-1.5-2.2-2.3-3.3c-0.2-0.3-0.4-0.4-0.8-0.4
		c-0.8,0-1.6,0-2.4-0.1c-0.1,0-0.3,0.1-0.5,0.2c0.5,0.6,0.9,1.1,1.3,1.6c0.4,0.5,0.7,1.1,1.1,1.6c1.6,1.9,1.2,1.7,3.5,1
		C302.2,153.9,302.3,153.8,302.4,153.7 M18.6,155.7c0.5,0.4,1.1,0.3,1.6,0.4c0.4,0.1,0.7,0,0.9-0.4c0.4-0.5,0.7-1,1-1.5
		c0.9-1.5,1.7-3,2.9-4.3c0.1-0.1,0.2-0.3,0-0.5h-1.6C21.8,151.4,20.1,153.5,18.6,155.7 M50,150.8c-0.2,0.3-0.4,0.6-0.6,0.8
		c-0.6,1-1.1,2-1.7,3c-0.8,1.6-1.6,3.2-2.7,4.7c-0.1,0.1-0.1,0.3-0.2,0.5c0.8,0.2,1.5,0.3,2.2,0.5c0.6-0.8,1.1-1.6,1.6-2.3
		c0.2-0.3,0.2-0.6,0.3-1c0.2-2,0.4-4,1.1-5.9C50.1,151.1,50,151,50,150.8 M286.6,149.4c2,2.3,4,4.2,5.4,6.6c1.4,0,1.5-0.1,2.2-0.5
		c-1.3-1.2-2.1-2.8-2.9-4.2c-0.3-0.5-0.7-1-1-1.5c-0.1-0.2-0.4-0.3-0.6-0.3c-0.7,0-1.3,0-2,0C287.4,149.3,287.1,149.4,286.6,149.4
		 M22,149.4c-0.8-0.1-1.4-0.1-2-0.1c-0.4,0-0.7,0.1-0.9,0.4c-0.9,1-1.8,2-2.7,3c-0.5,0.6-1,1.3-1.3,2.2c0.7,0.4,1.4,0.5,2.4,0.5
		c0.7-1,1.4-2,2.2-3C20.4,151.5,21.3,150.6,22,149.4 M30.9,149.5c-1.8,2.3-3.6,4.7-5.4,7c0,0,0,0.1,0,0.3c0.9,0.3,1.8,0.4,2.8,0.4
		c0.7-1.7,1.6-3.1,2.6-4.5c0.6-0.9,1.3-1.7,1.9-2.6c0.1-0.1,0.1-0.3,0.2-0.6H30.9z M291.5,149.4c1.1,2.3,2.7,4.1,4.3,5.9
		c0.7-0.1,1.4-0.3,2.2-0.4c0.2,0,0.4,0,0.4-0.2c-0.6-1-1.2-2-1.9-2.9c-0.4-0.6-0.9-1.3-1.3-1.9c-0.2-0.2-0.3-0.4-0.6-0.5
		C293.6,149.4,292.6,149.3,291.5,149.4 M35.5,158.3c0.6-1.9,1.6-3.5,2.7-5c0.7-1,1.5-2,2.2-2.9c0.1-0.1,0.1-0.3,0.2-0.6
		c-0.5,0-0.9,0-1.3-0.1c-0.7-0.1-1.1,0.1-1.4,0.7c-1.7,2.3-3.2,4.7-4.6,7.2c-0.1,0.1-0.1,0.3-0.1,0.5
		C33.9,158.1,34.6,158.2,35.5,158.3 M252.5,130.8c0.1,0.7,0.1,1.3,0.2,1.9c0,0.2,0.1,0.4,0.1,0.6c0,0.1,0.1,0.2,0.2,0.3
		c1,1.5,2,2.9,3,4.4c0.2,0.2,0.4,0.4,0.7,0.7c0.4-0.2,0.7-0.4,1.1-0.6c0.3-0.2,0.7-0.3,0.9-0.6c-0.7-1.1-1.3-2.1-1.9-3.2
		c-0.5-0.8-0.9-1.6-1.4-2.4c-0.1-0.2-0.2-0.4-0.4-0.4C254.1,131.1,253.4,130.8,252.5,130.8 M29.7,149.4c-0.9,0-1.6,0-2.3-0.1
		c-0.4,0-0.7,0.1-1,0.5c-0.8,1-1.6,1.9-2.3,3c-0.6,1-1.3,2-2,3c-0.1,0.1-0.1,0.3-0.2,0.4c1.2,0.4,1.8,0.5,2.8,0.3
		C26,154.1,28,152,29.7,149.4 M31.9,157.8c0.2-0.4,0.4-0.7,0.5-1c0.7-1.2,1.4-2.4,2.1-3.5c0.7-1.1,1.4-2.1,2.2-3.1
		c0.1-0.2,0.2-0.3,0-0.6c-0.8-0.1-1.5-0.1-2.3,0c-0.3,0.4-0.6,0.8-0.9,1.1c-1.5,1.9-2.9,3.9-4,6c-0.1,0.2-0.3,0.4-0.1,0.7
		C30.3,157.6,31,157.7,31.9,157.8 M56.4,139c0.2-0.3,0.4-0.5,0.5-0.7c0.8-1.4,1.4-2.8,2-4.3c0.2-0.6,0.5-1.3,0.7-2
		c0.1-0.4,0.3-0.9,0.1-1.4c-1,0.2-1.9,0.5-2.9,0.9c-0.3,0.1-0.3,0.4-0.5,0.6c-0.6,1.3-1.1,2.5-1.7,3.8c-0.2,0.5-0.5,1-0.7,1.6
		C54.7,138.2,55.5,138.6,56.4,139 M49.2,150c-0.5-0.3-1-0.1-1.4-0.2c-0.6-0.1-1,0.2-1.3,0.8c-0.8,1.5-1.7,2.9-2.7,4.3
		c-0.8,1-1.5,2-2.3,3.1c-0.2,0.3-0.5,0.7-0.6,1.1c1,0.2,2,0.4,3,0.5C45.9,156.6,47.4,153.3,49.2,150 M290.5,156.3
		c-0.4-0.5-0.6-0.9-0.9-1.2c-0.5-0.6-1-1.3-1.5-1.9c-0.8-1.1-1.7-2.2-2.5-3.3c-0.3-0.4-0.7-0.6-1.2-0.5c-0.7,0-1.5,0-2.2,0.1
		c-0.2,0-0.3,0.1-0.6,0.1c0.1,0.2,0.2,0.4,0.3,0.6c1,1.5,2,2.9,3,4.4c0.4,0.6,0.8,1.1,1.2,1.7c0.3,0.4,0.6,0.6,1.1,0.6
		C288.2,156.7,289.3,156.5,290.5,156.3 M276,149.6c0.3,0.3,0.4,0.5,0.5,0.6c0.9,0.9,1.7,2,2.4,3.1c0.3,0.5,0.6,1,0.9,1.5
		c0.7,1,1.4,2.1,2.5,2.7c0.4,0,0.9-0.1,1.4-0.2c0.5-0.1,1-0.1,1.5-0.3c-0.1-0.2-0.2-0.3-0.2-0.5c-1.4-2.1-2.7-4.2-4.1-6.3
		c-0.2-0.3-0.4-0.5-0.6-0.8C278.9,149.5,277.6,149.5,276,149.6 M272,159c1.2-0.2,2.2-0.3,3.5-0.5c-1-1.5-2-2.9-2.9-4.3
		c-0.9-1.5-1.8-3-2.7-4.3c-1.8-0.1-2.7-0.1-3.5,0.2c0.2,0.2,0.3,0.5,0.4,0.7c0.9,1.1,1.7,2.3,2.4,3.5c0.4,0.7,0.7,1.4,1.1,2
		C270.8,157.2,271.3,158.1,272,159 M271.1,149.8c0.1,0.3,0.2,0.5,0.3,0.7c0.6,0.9,1.2,1.9,1.8,2.8c1,1.4,2,2.8,3,4.3
		c0.2,0.3,0.4,0.5,0.7,0.8c1.2-0.2,2.3-0.3,3.5-0.5c0-0.2-0.1-0.3-0.1-0.4c-1-1.3-1.9-2.7-2.7-4.2c-0.7-1.2-1.6-2.3-2.5-3.3
		c-0.2-0.2-0.4-0.3-0.7-0.3C273.3,149.6,272.2,149.6,271.1,149.8 M270.7,159.2c-1.7-3.3-3.3-6.6-5.7-9.3c-0.9,0-1.9,0-2.9,0
		c-0.1,0-0.2,0.1-0.4,0.1c0.2,0.8,0.4,1.6,1,2.3c0.7,0.9,1.3,1.7,1.9,2.6c0.9,1.3,1.8,2.5,2.6,3.8c0.2,0.3,0.5,0.6,0.8,1
		C269,159.5,269.8,159.4,270.7,159.2 M45.6,149.9c-0.2,0-0.3-0.1-0.5-0.1c-0.7,0-1.5,0-2.2-0.1c-0.5,0-0.8,0.2-1.1,0.5
		c-0.7,0.8-1.4,1.6-2.1,2.5c-1.2,1.5-2.3,3.1-3.1,4.9c-0.1,0.2-0.1,0.5-0.2,0.8c0.8,0.1,1.4,0.2,2.1,0.3c0.3,0,0.7,0.1,1.1,0.1
		c0.9-1.6,2.1-3,3.2-4.5c1-1.3,1.8-2.7,2.6-4.1C45.6,150.2,45.6,150.1,45.6,149.9 M97.2,123.4c0.2,0.3,0.6,0.5,0.9,0.6
		c4,2.3,8.1,4.6,12.1,7c5.4,3.1,10.9,6.3,16.3,9.4c7.1,4.1,14.1,8.2,21.2,12.2c3.3,1.9,6.6,3.8,9.9,5.7c0.3,0.2,0.7,0.3,1,0.5
		c0.8-0.4,1.5-0.8,2.2-1.2c7.7-4.5,15.5-8.9,23.2-13.4c4.8-2.8,9.6-5.5,14.4-8.3c3.6-2.1,7.2-4.1,10.8-6.2c2.8-1.6,5.7-3.3,8.5-4.9
		c0.2-0.1,0.4-0.1,0.4-0.4c-0.4-0.2-0.6,0.1-0.9,0.2c-1.3,0.8-2.7,1.5-4,2.3c-6.5,3.7-12.9,7.5-19.4,11.2
		c-6.6,3.8-13.1,7.6-19.7,11.4c-3.6,2.1-7.2,4.2-10.8,6.2c-1.3,0.8-2.7,1.5-4,2.3c-0.5,0.3-1,0.3-1.5,0c-0.1-0.1-0.3-0.2-0.4-0.2
		c-3.4-2-6.9-4-10.3-5.9c-8.5-4.9-16.9-9.8-25.4-14.7c-7-4-13.9-8-20.9-12.1c-1-0.6-2-1.1-3-1.7C97.7,123.3,97.5,123.1,97.2,123.4
		 M140.7,70.7c1,0.2,2,0,3,0c1.2,0,2.4,0,3.7-0.2c0.1-0.2,0.1-0.3,0.1-0.5c0.1-1,0.4-2,0.7-2.9c0.6-1.7,1.2-3.3,2.3-4.7
		c0.4-0.6,0.6-1.2,0.7-1.9c0.2-1.7,0.3-3.4,0.1-5.2c0-0.2,0-0.3-0.1-0.5c-0.1-0.2-0.2-0.4-0.3-0.4c-0.1,0-0.4,0.1-0.5,0.2
		c-0.1,0.1-0.2,0.3-0.4,0.5c-0.3,0.4-0.6,0.8-0.8,1.2c-1,1.4-1.9,2.9-2.6,4.5c-0.9,1.9-1.9,3.7-3.1,5.4c-0.8,1.1-1.6,2.3-2.3,3.4
		C141,69.9,140.7,70.2,140.7,70.7 M162.8,70.4c2.1,0.1,4,0.3,6,0.2c0-0.7-0.3-1.2-0.5-1.7c-0.4-1.1-1-2.1-1.2-3.3
		c-0.4-1.6-1.4-2.9-3-3.7c-0.2-0.1-0.3-0.3-0.5-0.4c0.2-0.4,0.5-0.8,0.3-1.2c-0.3-0.5-0.3-1.1-0.3-1.7c-0.1-0.8-0.1-1.7-0.6-2.4
		c-0.1-0.2-0.1-0.5-0.2-0.8c0-0.2-0.1-0.4-0.2-0.5c-0.4-0.1-0.9-0.1-1.3-0.2c-0.7-0.2-1-0.1-1.1,0.6c-0.1,0.2-0.1,0.5-0.1,0.7
		c-0.1,0.8-0.1,1.5-0.2,2.3c-0.1,0.8-0.2,1.7-0.2,2.5c-0.2,2.5-0.4,4.9-0.6,7.4c0,0.5-0.1,0.9,0,1.4c0,0.2,0.1,0.4,0.2,0.7
		c0.1,0.1,0.3,0.2,0.4,0c0.1-0.2,0.2-0.4,0.3-0.6c0.4-1.2,0.8-2.4,1.2-3.6c0.3-0.7,0.7-1.4,1.1-2.1c0.1-0.2,0.2-0.3,0.5-0.2
		c0,0.1,0,0.3,0,0.4c0,0.6,0,1.1,0,1.7c0,0.6,0.1,1.1,0.1,1.7C162.8,68.5,162.8,69.4,162.8,70.4 M48,165c0-0.1,0-0.2,0-0.2
		c-0.2-0.1-0.3-0.2-0.5-0.2c-2.7-0.9-5.5-1.4-8.3-1.9c-2.5-0.4-5-0.7-7.5-1.1c-0.7-0.1-1.1,0.1-1.5,0.6c-1,1.2-1.9,2.5-2.5,4
		c-0.8,1.8-1.4,3.7-1.9,5.6c-0.2,0.9-0.4,1.9-0.5,2.9c0.5-0.2,0.6-0.6,0.8-0.9c0.7-1,1.5-1.9,2.5-2.7c3.2-2.8,7-4.4,11.2-5
		c1.6-0.2,3.2-0.4,4.8-0.6C45.7,165.3,46.8,165.1,48,165 M264.2,164.7c0,0.1,0,0.1,0.1,0.2c0.6,0.1,1.2,0.2,1.8,0.3
		c2,0.2,4,0.5,6,0.7c2.1,0.2,4.1,0.8,6.1,1.6c2,0.8,3.9,1.9,5.5,3.4c1,0.9,1.9,2,2.7,3.1c0.1,0.2,0.2,0.5,0.6,0.5
		c0-0.1,0.1-0.2,0-0.2c-0.5-3.2-1.4-6.3-2.9-9.2c-0.6-1.1-1.3-2.2-2.2-3.1c-0.3-0.4-0.7-0.5-1.1-0.4c-0.7,0.1-1.4,0.2-2.2,0.3
		c-2.8,0.4-5.6,0.9-8.4,1.4c-1.9,0.3-3.7,0.7-5.5,1.3C264.5,164.6,264.4,164.7,264.2,164.7 M221.9,75c0.2,0.1,0.3,0.2,0.4,0.2
		c0.6,0.1,0.7,0,0.8-0.5c0-0.3,0-0.6,0-0.9c0-8.3,0-16.6,0-24.9c0-0.2,0-0.5,0-0.7c0.1-0.6-0.2-0.9-0.7-1.2
		c-1.3-0.7-2.6-1.5-3.9-2.2c-5.2-3-10.3-5.9-15.5-8.9c-7.3-4.2-14.6-8.4-21.9-12.7c-7-4-13.9-8-20.9-12.1c-0.5-0.3-1.1-0.6-1.6-0.9
		c-21.5,12.4-42.9,24.8-64.4,37.2c0,0.5,0,0.9,0,1.3c0,8.2,0,16.4,0,24.6c0,0.3,0,0.6,0,0.9c0,0.2,0.1,0.3,0.2,0.5
		c0.3-0.1,0.5-0.1,0.7-0.2c0.1,0,0.1-0.1,0.2-0.2V73c0-7.6,0-15.2,0-22.9c0-0.5,0-0.9,0-1.4c21-12.1,41.9-24.2,62.8-36.3
		c0.1-0.1,0.3-0.1,0.4-0.2c0.1,0,0.3,0.1,0.4,0.1c20.9,12.1,41.8,24.2,62.8,36.3c0,0,0.1,0.1,0.1,0.1c0,0,0,0.1,0.1,0.3v4.2v4.4v4.3
		v4.4c0,1.5,0,2.9,0,4.4C221.9,72.1,221.9,73.6,221.9,75 M58.6,145.1c-0.2-0.4-0.5-0.6-0.9-0.8c-1.2-0.7-2.5-1.4-3.7-2.1
		c-1.4-0.8-2.8-1.5-4.1-2.3c-1.1-0.7-2.1-1.4-2.9-2.5c-0.8-1-1.1-2.7-0.1-4.1c0.5-0.8,1-1.6,1.5-2.3c2.4-3.8,4.6-7.7,6.5-11.8
		c0.1-0.3,0.4-0.6,0.2-1c-0.5-0.2-1.1-0.3-1.6-0.5c-3.6-1-7.3-1.5-11-1.9c-4.2-0.4-8.4-0.3-12.6-0.3c-2,0-4,0.3-6,0.4
		c-1.9,0.1-3.8,0.4-5.7,0.8c-0.9,0.2-1.8,0.3-2.6,0.8c0,0.2-0.1,0.3-0.1,0.4c-0.5,2.8-1,5.5-1.4,8.3c-0.6,3.7-1.2,7.4-2.2,11
		c-0.8,2.9-1.9,5.8-3.3,8.5c-0.1,0.2-0.1,0.4-0.2,0.7c0.3,0,0.5,0,0.8,0c2-0.1,3.9-0.2,5.9-0.3c3.5-0.1,7.1-0.3,10.6-0.3
		c10.5,0,21,0,31.5,0c0.3,0,0.5,0,0.8,0C58.1,145.6,58.4,145.5,58.6,145.1 M253.6,145.2c0.4,0.4,0.9,0.5,1.5,0.6
		c1.8,0.3,3.5,0.3,5.3,0.3c4.6,0,9.2-0.2,13.8-0.2c5,0,10.1,0,15.1,0c1.5,0,2.9,0,4.4,0.1c3.2,0.1,6.5,0.2,9.7,0.4
		c0.2,0,0.3,0,0.6,0c-0.1-0.3-0.2-0.4-0.3-0.6c-1.7-3.1-2.9-6.5-3.7-9.9c-0.9-3.6-1.5-7.3-2.1-11c-0.3-2-0.7-4.1-1-6.1
		c-0.1-0.4-0.2-0.7-0.3-1.1c-0.3-0.1-0.6-0.3-0.9-0.3c-1.1-0.3-2.2-0.5-3.3-0.7c-1.5-0.2-3-0.4-4.5-0.5c-1.4-0.1-2.8-0.3-4.2-0.4
		c-3.1-0.2-6.2-0.1-9.2-0.1c-1,0-2.1,0.1-3.1,0.2c-1.8,0.2-3.7,0.4-5.5,0.6c-2.7,0.3-5.4,0.9-8,1.6c-0.3,0.1-0.6,0.2-0.9,0.4
		c0.1,0.4,0.2,0.7,0.4,1c1.5,3.4,3.3,6.8,5.3,10c0.9,1.4,1.8,2.8,2.6,4.2c0.4,0.6,0.6,1.3,0.6,2.1c0,0.9-0.5,1.7-1.1,2.4
		c-0.8,0.9-1.7,1.6-2.7,2.1c-1.3,0.8-2.7,1.5-4,2.2c-1.2,0.7-2.5,1.4-3.7,2.1C254.1,144.5,253.8,144.7,253.6,145.2 M158.6,154
		c0.4-0.2,0.8-0.4,1.2-0.6c2.6-1.5,5.3-3,7.9-4.6c7.5-4.3,14.9-8.6,22.4-12.9c3.6-2.1,7.1-4.1,10.7-6.2c3.2-1.9,6.5-3.7,9.7-5.6
		c0.2-0.1,0.6-0.2,0.6-0.6c-0.8-0.1-1.5-0.2-2.3-0.3c-2.4-0.3-4.7-0.6-7.1-0.9c-1.7-0.2-3.4-0.4-5-0.5c-2.9-0.3-5.8-0.6-8.7-0.9
		c-2.2-0.2-4.4-0.4-6.6-0.6c-1.9-0.2-3.8-0.3-5.8-0.4c-0.2,0-0.4,0.1-0.7,0.1c0,1.1,0,2-0.1,3c0,1,0,2-0.1,3
		c-0.5,0.1-0.9,0.1-1.4-0.1c-0.1-2.1,0.1-4.1,0-6.2c-1.1-0.2-2.2-0.2-3.3-0.3c-1.1-0.1-2.2-0.1-3.2-0.1c-1.1-0.1-2.1-0.2-3.2-0.1
		c0,0.2-0.1,0.4,0,0.6c0.1,1.3,0.2,2.7,0.3,4c0.2,3.2,0.3,6.4,0.4,9.6c0,0.3,0.1,0.6-0.2,0.9c-0.1,0-0.2,0-0.3-0.1
		c-1.6-1-3.2-2-4.7-3.1c-4.2-3.1-8.3-6.3-12.8-9.1c-0.2-0.1-0.3-0.3-0.6-0.5c0-0.6,0-1.2,0-1.8c0-0.2-0.1-0.4-0.1-0.7
		c-6.6,0.1-13.2,0.5-19.7,1.1c-7.1,0.6-14.2,1.3-21.2,2.3c-0.1,0-0.1,0.1-0.1,0.1c0,0.1,0,0.2,0.1,0.2
		C122.4,133.1,140.5,143.5,158.6,154 M99.3,74c0.3,0,0.6,0,0.9,0c1.7-0.2,3.4-0.4,5.2-0.5c2.8-0.3,5.7-0.6,8.5-0.8
		c2.5-0.2,4.9-0.4,7.4-0.5c1.3-0.1,2.7-0.2,4-0.3c1.6-0.1,3.3-0.3,4.9-0.4c1.8-0.1,3.6-0.2,5.4-0.3c0.1,0,0.1-0.1,0.3-0.1
		c0.1-0.2,0.2-0.4,0.2-0.6c0.4-1.2,0.7-2.4,1.2-3.6c0.5-1.2,0.9-2.4,1.2-3.6c0.3-1.3,0.9-2.4,1.5-3.6c0.1-0.3,0.3-0.5,0.5-0.7
		c0.7-0.6,1.1-1.4,1.6-2.1c1.6-2.8,3.3-5.5,4.9-8.2c0.1-0.2,0.3-0.5,0.3-0.7c0.2-1.2,0.4-2.4,1-3.5c0.1-0.2,0.2-0.5,0.2-0.8
		c0.1-0.7,0.5-1.2,1.1-1.6c1.2-0.7,2.4-1.2,3.8-1.3c0.8,0,1.4-0.3,2-0.7c0-0.1,0.1-0.3,0.1-0.4c0.2-1.6,0.4-3.3,0.7-4.9
		c0.1-0.6,0.1-1.2-0.2-1.8c-0.3-0.4-0.5-1-0.6-1.5c-0.1-0.3-0.2-0.7-0.2-1c0-0.4-0.1-0.8,0-1.1c0.1-0.9-0.2-1.5-0.9-2
		c-0.3-0.2-0.5-0.5-0.7-0.8c-0.3-0.7-0.6-1.5-0.5-2.3c0.1-0.6,0.3-1,0.7-1.4c0.2-0.2,0.7-0.2,0.9,0.1c0.1,0.1,0.1,0.3,0.2,0.4
		c0.1,0.2,0.1,0.5,0.4,0.4c0.2-0.1,0.2-0.4,0.3-0.6c0-0.1,0-0.2,0-0.3c-0.2-0.4,0-0.8,0.3-1c0.6-0.4,1.1-0.8,1.9-0.8
		c0.6,0,1.2,0,1.8-0.2c0.3-0.1,0.7,0,1.1,0.1c0.5,0.7,1.4,0.8,2,1.3c0.1,0.5,0.1,0.9-0.1,1.3c-0.1,0.1-0.1,0.3-0.1,0.4
		c0,0.1,0.1,0.2,0.1,0.2s0.2,0,0.2,0c0.1-0.1,0.2-0.3,0.3-0.5c0.2-0.2,0.5-0.3,0.7-0.1c0.2,0.2,0.3,0.4,0.2,0.6
		c-0.3,0.3-0.2,0.7-0.3,1.1c-0.1,0.4,0.1,0.6,0.3,0.8c0.3,0.3,0.6,0.5,0.9,0.8c-0.2,0.3-0.3,0.5-0.5,0.8c0.2,0.4,0.5,0.7,0.4,1.2
		c0,0.4,0.1,0.8,0.3,1.2c0.3,0.8,0.6,1.6,0.9,2.4c0.7,1.8,1.4,3.6,2.1,5.4c0.1,0.4,0.2,0.7,0.3,1.1c0,0.2-0.1,0.4-0.1,0.5
		c-0.1,0.2-0.3,0.2-0.5,0c-0.1-0.1-0.1-0.3-0.2-0.4c-0.3,0-0.7,0.1-0.9-0.1c-1.1-0.5-2.1-1.2-2.4-2.5c-0.3-1-0.5-1.9-0.7-2.9
		c-0.3-1.5-0.5-3,0.2-4.4c0.1-0.3,0-0.5-0.2-0.7c-0.3-0.3-0.7-0.5-1-0.7c-0.3-0.2-0.5-0.5-0.6-0.8c-0.8,0.4-1.6-0.2-2.5,0.4
		c0.3,0.2,0.6,0.3,0.9,0.5c-0.3,0.1-0.6,0.1-0.9,0.2c-0.1,0-0.3,0.2-0.3,0.3c0,0.1,0.2,0.3,0.3,0.3c0.2,0.1,0.4,0.1,0.6,0.2
		c-0.1,0.4-0.3,0.8-0.2,1.2c0.1,0.3,0.5,0.6,0.7,0.8c0.1,0.1,0.1,0.1,0.1,0.2c0,0.4-0.6,0.7-0.4,1.2c0.8,0,1-1,1.8-1.1
		c0,0.2,0,0.3,0,0.5c-0.1,0.5-0.4,0.9-0.7,1.3c-0.5,0.6-0.9,1.1-1.4,1.7c-0.4,0.5-0.7,1.1-0.7,1.7c0,0.3,0.2,0.6,0.3,1
		c0.1,0.4-0.3,0.7,0,1.1c0.2-0.1,0.5-0.1,0.8-0.2c-0.1,0.3-0.1,0.6-0.2,0.7c-0.2,0.2-0.4,0.3-0.6,0.5c-0.1,0.1-0.2,0.3-0.2,0.5
		c0.3,0.1,0.5,0.1,0.7,0.2c0.1,0.5,0.1,0.9,0.2,1.4c0.7-0.1,0.7-0.1,1.6,0.8c-0.1,0.1-0.2,0.2-0.2,0.3c0.1,0.4-0.1,0.8-0.2,1.2
		c-0.1,0.2-0.1,0.4-0.1,0.6c0,0.2,0.1,0.4,0.4,0.4c0.2-0.5,0.5-1,0.7-1.5c0.1-0.3,0.4-0.6,0.7-0.8c0.5-0.4,1.1-0.6,1.7-0.7
		c0.4-0.1,0.7-0.2,0.9-0.7c-0.2-0.2-0.4-0.4-0.6-0.6c-0.1-0.1-0.1-0.4,0.1-0.4c0.6-0.1,1.2-0.2,1.8-0.3c0,0,0.1,0,0.1,0
		c0.1,0.2,0.2,0.3,0.3,0.4c1.4-0.2,1.4-0.2,2.3,0.2c0.3,0.2,0.6,0.5,0.9,0.7c0.8,0.4,0.9,1.1,1,1.9c0.1,1.2-0.1,2.3-0.1,3.4
		c0,0.6,0.2,1,0.8,1.3c0.1-0.2,0.2-0.3,0.2-0.4c0-0.3-0.1-0.5-0.1-0.8c-0.1-1-0.2-1.9,0-2.9c0.1-0.6,0.4-1.2,0.1-1.8
		c-0.1-0.2,0-0.4,0.1-0.6c0.5-0.7,0.3-1.3-0.2-1.9c-0.2-0.2-0.3-0.4-0.4-0.6c-0.5-0.7-0.8-1.4-0.8-2.2c-0.1-0.6,0.1-0.8,0.7-0.8
		c1,0,2.1,0,3.1,0c0.4,0,0.8,0.1,1.1,0.5c0.4,0.5,1,0.5,1.5,0.2c0.4-0.2,0.7-0.4,1.2-0.3c0.1,0,0.2,0,0.3-0.1c0.5-0.5,1-0.2,1.5-0.1
		c0.6,0.1,0.8,0.9,0.3,1.3c-0.6,0.4-0.8,0.9-0.9,1.5c0.1,0.2,0.2,0.5,0.3,0.8c-0.3,0.3-0.6,0.6-0.8,1c-0.2,0.4-0.4,0.8-0.7,1.3
		c-0.2,0.1-0.6,0.3-0.9,0.4c-0.7,0.3-1.4,0.7-1.9,1.3c-0.6,0.6-0.6,0.6-1.5,0.8c0,0.2-0.1,0.3-0.1,0.5c-0.3,2-0.3,3.9-0.1,5.9
		c0,0.4,0.2,0.8,0.3,1.1c0.3,0.5,0.5,0.9,0.3,1.5c-0.1,0.3,0,0.7,0.1,1c0.2,0.5,0.2,0.9,0,1.4c-0.1,0.2,0,0.5,0,0.7
		c0.3,0.2,0.5,0.3,0.7,0.4c0,1.7,0,1.8-0.3,2.3c0-0.4-0.1-0.8-0.1-1.2c0-0.1-0.2-0.1-0.2-0.2c0,0-0.2,0.1-0.2,0.1
		c-0.1,0.5-0.3,1-0.4,1.6c0,0.4,0.1,0.8,0.4,1c0.1,0.1,0.3,0.2,0.4,0.3c0.1,0.1,0.1,0.3,0.1,0.4c0,0.1-0.2,0.2-0.4,0.2
		c-0.3,0.1-0.6,0-0.9-0.2c-1.1-0.7-2-1.5-2.8-2.6c-0.4-0.6-0.9-1.2-1.4-1.7c-0.4-0.5-0.8-0.6-1.3-0.3c-0.5,0.3-1,0.3-1.5,0.3
		c-0.4,0-0.8-0.1-1.3,0.2c-0.1,0.2-0.2,0.4-0.3,0.6c-0.5,2-0.2,3.9,1,5.6c1.1,1.6,2.1,3.1,2.9,4.8c0.4,0.9,0.8,1.7,1.2,2.7
		c3.1,0.2,6.3,0.4,9.4,0.6c3.1,0.2,6.3,0.4,9.4,0.6c3.1,0.2,6.3,0.5,9.4,0.8c3.1,0.3,6.3,0.5,9.4,0.9c3.1,0.3,6.2,0.8,9.4,1
		c0.1-0.2,0.1-0.3,0.1-0.4c0-7.7,0-15.4,0-23.2c-9.9-5.7-19.8-11.4-29.6-17.1c-9.9-5.7-19.9-11.5-29.8-17.2
		c-0.5,0.3-0.9,0.5-1.4,0.8c-4.3,2.5-8.7,5-13,7.5c-7,4.1-14.1,8.1-21.1,12.2c-7.7,4.4-15.3,8.8-23,13.3c-0.2,0.1-0.5,0.3-0.7,0.4
		c-0.2,0.1-0.3,0.4-0.3,0.6c-0.1,0.3,0,0.6,0,0.9c0,3.9,0,7.9,0,11.8c0,2.9,0,5.8,0,8.7C99.1,73.2,99.1,73.6,99.3,74 M257.4,128.2
		c-0.2-0.4-0.3-0.6-0.4-0.8c-1.1-2-2.2-4-3.1-6c-1.6-3.4-2.9-7-3.8-10.6c-0.4-1.8-0.7-3.6-0.9-5.5c-0.2-2.1-0.4-4.1-0.3-6.2
		c0.1-3.9,0.3-7.8,0.8-11.7c0.1-0.7-0.1-1.2-0.7-1.6c-0.4-0.3-0.8-0.6-1.3-0.8c-1.9-1-3.9-1.6-5.9-2.2c-2.2-0.6-4.3-1-6.5-1.5
		c-3.2-0.8-6.5-1.3-9.8-1.8c-2.5-0.4-4.9-0.7-7.4-1c-2.3-0.3-4.6-0.5-6.9-0.8c-1.8-0.2-3.5-0.4-5.3-0.5c-2-0.2-4-0.4-6-0.6
		c-3.4-0.3-6.8-0.5-10.2-0.8c-1.1-0.1-2.2-0.2-3.3-0.3c-2-0.1-4.1-0.3-6.1-0.4c-1.9-0.1-3.8-0.2-5.8-0.3c-2.1-0.1-4.2-0.3-6.3-0.4
		c-2.3-0.1-4.6-0.2-6.9-0.3c-2.1-0.1-4.2-0.1-6.2-0.1c-2.2,0-4.3,0.1-6.5,0.2c-2.1,0.1-4.2,0.2-6.2,0.3c-1.8,0.1-3.5,0.2-5.3,0.3
		c-2,0.1-4.1,0.2-6.1,0.3c-3.9,0.3-7.8,0.6-11.6,0.9c-2.8,0.2-5.7,0.5-8.5,0.7c-0.9,0.1-1.8,0.2-2.6,0.3c-1.2,0.1-2.4,0.2-3.6,0.3
		c-2.4,0.3-4.9,0.5-7.3,0.8c-2.5,0.3-5,0.7-7.4,1c-3.2,0.4-6.5,1-9.7,1.5c-3.5,0.6-7,1.4-10.5,2.4c-1.8,0.5-3.6,1.1-5.3,2
		c-0.5,0.3-0.9,0.6-1.3,0.9c-0.4,0.3-0.6,0.7-0.5,1.2c0.1,0.7,0.1,1.4,0.2,2.1c0.3,2.8,0.5,5.6,0.6,8.4c0.1,2.8,0,5.7-0.4,8.5
		c-0.2,1.6-0.5,3.2-0.8,4.8c-1.1,4.6-2.9,8.9-5,13.1c-0.6,1.2-1.2,2.3-1.9,3.5c-0.1,0.2-0.3,0.4,0,0.6c0.2-0.1,0.5-0.2,0.7-0.2
		c2.6-0.8,5.2-1.7,7.9-2.3c3.7-0.8,7.4-1.6,11.1-2.4c3.4-0.7,6.9-1.3,10.3-1.9c3.3-0.6,6.5-1.1,9.8-1.6c1.3-0.2,2.5-0.4,3.8-0.5
		c1.5-0.2,3-0.4,4.5-0.6c2.2-0.3,4.4-0.6,6.6-0.8c2.6-0.3,5.1-0.5,7.7-0.8c2.3-0.2,4.7-0.5,7-0.6c2.5-0.2,5-0.4,7.5-0.5
		c2.4-0.2,4.8-0.3,7.1-0.4c2.6-0.1,5.2-0.1,7.7-0.2c4.6-0.2,9.2-0.1,13.9,0.1c4.2,0.1,8.5,0.4,12.7,0.6c3.8,0.2,7.6,0.6,11.4,0.8
		c0.9,0.1,1.8,0.1,2.8,0.2c2,0.2,4,0.4,6,0.6c2.5,0.3,5.1,0.5,7.6,0.8c3,0.3,6,0.7,9,1.1c2,0.3,4,0.5,6.1,0.8c3.3,0.5,6.5,1,9.8,1.5
		c2.2,0.3,4.3,0.7,6.5,1c3.7,0.6,7.3,1.3,11,2c3.7,0.7,7.4,1.5,11,2.6c0.4,0.1,0.9,0.2,1.3,0.4C256.3,127.9,256.7,128,257.4,128.2
		 M0,150.2c0.1,0,0.3,0,0.4-0.1c0.5-0.7,1-1.4,1.5-2c1.7-2.1,3.1-4.4,4.1-6.9c1-2.4,1.7-4.9,2.3-7.4c0.7-2.8,1.1-5.6,1.6-8.4
		c0.5-2.8,1-5.7,1.4-8.5c0.2-1.4,1-2.3,2.3-2.8c1.6-0.6,3.3-1,5-1.3c2.4-0.4,4.9-0.7,7.3-0.9c4.1-0.2,8.2-0.4,12.2-0.2
		c1.6,0.1,3.2,0.2,4.8,0.3c4.4,0.4,8.8,1,13,2.4c0.1,0,0.2,0,0.4,0.1c0.1-0.2,0.3-0.4,0.3-0.6c1-2.9,1.6-5.9,1.9-9
		c0.4-4,0.3-7.9,0-11.9c-0.2-2-0.3-4-0.5-6c-0.1-1.1,0.2-2,0.8-2.8c0.6-0.8,1.5-1.5,2.4-2c1.5-0.9,3.1-1.6,4.7-2.1
		c2.3-0.8,4.6-1.5,7-2c3.2-0.7,6.3-1.2,9.5-1.8c0.8-0.2,1.7-0.2,2.5-0.5c0-0.2,0.1-0.4,0.1-0.5c0-0.4,0-0.8,0-1.2
		c0-10.2,0-20.3,0-30.5c0-1.7-0.1-1.3,1.2-2.1c6.9-4,13.8-8,20.7-12c5.7-3.3,11.5-6.6,17.2-9.9c4.7-2.7,9.5-5.5,14.2-8.2
		c4.7-2.7,9.5-5.5,14.2-8.2c1.7-1,3.5-2,5.2-3c0.2-0.1,0.3-0.2,0.6-0.3c24.3,14.1,48.7,28.1,73.1,42.2c0,0.5,0,0.9,0,1.4
		c0,10.5,0,21.1,0,31.6c0,0.5-0.1,0.9,0.1,1.4c0.6,0.4,1.4,0.4,2.1,0.5c4,0.7,8,1.6,11.9,2.9c1.7,0.6,3.3,1.2,4.8,2.2
		c0.7,0.4,1.3,0.9,1.9,1.5c0.9,0.9,1.4,2,1.3,3.3c-0.1,1.2-0.2,2.5-0.3,3.7c-0.1,1.9-0.3,3.8-0.4,5.8c-0.1,2-0.1,3.9,0,5.9
		c0.2,3.9,0.9,7.7,2.1,11.4c0.1,0.2,0.2,0.5,0.4,0.7c1-0.3,2-0.5,3-0.8c2.6-0.7,5.3-1.1,7.9-1.4c2.8-0.4,5.7-0.5,8.5-0.6
		c2.5-0.1,5.1,0,7.6,0.1c1.8,0,3.5,0.2,5.3,0.3c2.8,0.2,5.5,0.6,8.2,1.3c0.9,0.2,1.7,0.5,2.5,0.8c1.2,0.4,1.9,1.3,2.1,2.6
		c0.5,2.9,0.9,5.8,1.4,8.6c0.6,3.3,1.1,6.7,2,10c0.9,3.6,2.2,7,4.2,10.2c0.5,0.8,1,1.5,1.6,2.3c0.5,0.7,1.1,1.3,1.6,2v3
		c-0.8,1.3-1.9,2.2-3.2,2.9c-0.7,0.4-1.5,0.7-2.2,1c-2.2,0.9-4.5,1.4-6.8,1.9c-3.7,0.8-7.4,1.4-11.1,1.9c-0.7,0.1-1.4,0.1-2,0.4
		c0,0.1,0,0.1,0,0.2c0,0.1,0.1,0.2,0.2,0.3c1.8,2.6,2.9,5.4,3.7,8.4c1,3.6,1.5,7.3,1.6,11c0,0.7,0,1.5,0,2.2
		c-0.3,0.1-0.5,0.2-0.8,0.3c-0.7,0.2-1.4,0.5-2.1,0.7c-0.2,0.1-0.4,0.2-0.5,0.4h-0.2c-1.3-1.5-2.3-3-3.3-4.7
		c-0.4-0.6-0.7-1.3-1.1-1.9c-0.8-1.4-1.7-2.7-2.9-3.9c-2-2-4.5-3.1-7.3-3.9c-2.2-0.6-4.4-0.6-6.6-0.9c-1.3-0.2-2.6-0.3-3.9-0.5
		c-1.1-0.2-2.2-0.4-3.2-1c-1.1-0.7-1.8-1.7-1.5-3.3c0.6-3.1,0.6-6.2,0.2-9.3c-0.2-1.6-0.7-3.1-1.4-4.5c-0.3-0.5-0.6-0.8-1.2-0.8
		c-0.4,0-0.8-0.1-1.1-0.1c-1.7-0.1-3.2-0.7-4.5-1.7c-1.1-0.8-1.6-1.8-1.4-3.2c0.1-1.1,0.1-2.2,0.1-3.2c-0.1-2-0.2-4-0.4-6
		c-0.2-1.8-0.5-3.5-0.7-5.3c-0.1-0.4-0.3-0.6-0.6-0.7c-0.2,0-0.4-0.1-0.6-0.1c-3.8-0.7-7.5-1.5-11.3-2.2c-1.2-0.2-2.3-0.4-3.4-0.6
		c-3.5,2.2-7.1,4.1-10.5,6.2c-3.5,2.1-7,4-10.5,6.1c-3.5,2-7,4-10.5,6.1c-3.5,2-7.1,4.1-10.6,6.1c-3.5,2-7,4-10.5,6.1
		c-3.5,2-7,4-10.5,6.1c-3.5,2-7,4-10.5,6c-0.4-0.2-0.7-0.4-1.1-0.6c-1.8-1.1-3.7-2.1-5.5-3.2c-4.9-2.8-9.8-5.6-14.7-8.5
		c-5.1-2.9-10.2-5.9-15.3-8.8c-5.3-3-10.5-6.1-15.8-9.1c-5.2-3-10.4-6-15.6-9c-1.5-0.9-3.1-1.8-4.6-2.6c-0.5-0.3-0.8-0.6-0.7-1.2
		c0-0.3,0.1-0.6-0.3-0.8c-2.6,0.2-19.2,3.6-20.8,4.3c-0.1,0.4-0.2,0.8-0.3,1.2c-0.1,0.9-0.3,1.8-0.4,2.6c-0.3,2.3-0.6,4.7-0.6,7
		c0,1.5,0,3.1,0,4.6c0.1,1.2-0.4,2.1-1.3,2.8c-0.1,0.1-0.3,0.2-0.5,0.3c-1.3,0.9-2.7,1.3-4.3,1.5c-1.9,0.2-1.7-0.1-2.6,1.9
		c0,0.1-0.1,0.2-0.1,0.3c-0.5,1.3-0.8,2.7-1,4.1c-0.3,2-0.3,4.1,0,6.1c0.1,0.9,0.2,1.8,0.4,2.6c0.1,1.2-0.3,2.1-1.3,2.7
		c-0.5,0.3-0.9,0.5-1.4,0.7c-0.7,0.2-1.5,0.4-2.2,0.5c-2.5,0.3-5,0.6-7.4,0.9c-2,0.2-4,0.7-5.9,1.6c-2.1,1-4,2.3-5.4,4.2
		c-0.7,1-1.4,2-2,3.1c-1.1,2-2.2,4-3.8,5.7c-0.1,0.1-0.1,0.2-0.1,0.3h-0.5c0-0.2-0.2-0.3-0.4-0.4c-0.7-0.2-1.5-0.5-2.2-0.7
		c-0.2-0.1-0.5-0.2-0.7-0.3c0-0.7,0-1.4,0-2c0.1-2.3,0.3-4.5,0.7-6.8c0.7-4.5,2-8.9,4.6-12.7c0.1-0.2,0.3-0.4,0.1-0.7
		c-1.1-0.2-2.3-0.4-3.4-0.5c-3.7-0.5-7.3-1.1-10.9-2c-1.6-0.4-3.3-0.8-4.9-1.4c-2.5-0.9-4.9-1.9-6.2-4.5c0,0-0.2,0-0.3,0V150.2z"/>
	<path clip-path="url(#SVGID_2_)" fill="#922935" d="M112.6,100.5c0.2,0,0.3,0,0.4,0c1.1-0.3,1.7-1.1,1.9-2.1
		c0.5-1.9,0.3-3.7-0.5-5.5c-0.4-0.9-1.1-1.4-2-1.6c-0.2,0-0.4,0-0.7,0c0,0.2-0.1,0.4-0.1,0.5c0.2,2.8,0.5,5.6,0.7,8.4
		C112.4,100.3,112.5,100.4,112.6,100.5 M109.9,100.7c0.1-1-0.4-8-0.7-9.2c-0.9,0-1.6,0.5-2,1.3c-0.3,0.5-0.4,1-0.5,1.5
		c-0.2,1.1-0.1,2.2,0.1,3.3c0.2,0.8,0.4,1.6,1,2.2C108.3,100.5,108.9,100.9,109.9,100.7 M111.6,89.6c0.7,0.1,1.2,0.1,1.6,0.2
		c2.8,0.4,4.2,2.4,4.7,4.8c0.2,1.4,0.2,2.8-0.4,4.1c-0.7,1.6-1.9,2.6-3.5,3.1c-0.4,0.1-0.9,0.3-1.2,0.4c-0.3,0.6,0.2,1,0.3,1.5
		c-0.5,0.4-1,0.2-1.5,0.3c-0.5,0-1.1,0.2-1.5,0.1c-0.2-0.6,0.4-1-0.1-1.6c-0.2,0-0.4-0.1-0.6-0.1c-0.7,0-1.4-0.2-2.1-0.4
		c-1.2-0.4-2.1-1.2-2.7-2.3c-0.9-1.7-1.2-3.5-0.7-5.4c0.5-2.2,2-3.5,4.1-4.1c0.3-0.1,0.6-0.2,0.9-0.3c0,0,0.1-0.1,0.1-0.1
		c-0.1-0.3-0.3-0.6-0.4-1c0.5-0.3,1.1-0.2,1.6-0.3c0.5-0.1,1.1-0.1,1.6-0.2c0.2,0.2,0.1,0.3,0.1,0.5
		C111.7,89.1,111.7,89.3,111.6,89.6"/>
	<path clip-path="url(#SVGID_2_)" fill="#922935" d="M208.7,105.7c-0.6-1.2-0.7-2.2-1-3.2c-0.3-1-0.6-2-0.8-3
		c-0.3-1-0.6-2.1-0.9-3.3c-0.2,0.3-0.3,0.4-0.3,0.5c-0.3,2.1-0.6,4.2-0.9,6.3c0,0.3,0,0.7,0,1c0,0.3,0.2,0.7,0.3,1
		c-0.1,0.1-0.1,0.2-0.2,0.2c-0.8,0-1.7,0-2.5-0.3c0.1-0.2,0.1-0.4,0.1-0.5c0.4-0.6,0.5-1.3,0.7-1.9c0.5-3.3,1.1-6.6,1.7-9.9
		c0.1-0.4,0.1-0.8,0.1-1.1c0-0.3-0.1-0.7-0.2-1.1c0.2,0,0.4-0.1,0.5-0.1c0.6,0.1,1.2,0.2,1.9,0.3c0.5,1.6,0.9,3.2,1.3,4.8
		c0.4,1.6,0.8,3.2,1.2,4.8c0.4,0,0.5-0.3,0.6-0.5c1.2-2.4,2.4-4.7,3.6-7.1c0.1-0.2,0.2-0.5,0.4-0.7c0.1-0.1,0.3-0.2,0.4-0.2
		c0.7,0,1.3,0.1,2,0.3c-0.2,0.7-0.3,1.2-0.4,1.8c-0.1,0.6-0.1,1.2-0.1,1.7c-0.2,2.9-0.3,5.8-0.5,8.6c-0.1,0.9-0.2,1.8,0.2,2.6
		c-0.4,0.3-0.8,0.1-1.1,0.1c-0.4-0.1-0.8-0.1-1.3-0.2c-0.4-0.1-0.8,0-1.1-0.2c0-0.1-0.1-0.2-0.1-0.3c0.4-0.7,0.5-1.4,0.5-2.2
		c0.1-1.8,0.3-3.7,0.4-5.5c0-0.2,0-0.4,0-0.6c-0.4-0.1-0.4,0.2-0.5,0.3c-0.8,1.6-1.6,3.2-2.4,4.7c-0.4,0.8-0.8,1.6-1.2,2.4
		C209.1,105.2,208.9,105.4,208.7,105.7"/>
	<path clip-path="url(#SVGID_2_)" fill="#922935" d="M137.6,87.4c-0.6,1-0.4,2-0.4,3c0.1,2.3,0.1,4.6,0.2,6.9c0,0.1,0,0.2,0.1,0.3
		c0.3,0.1,0.3-0.2,0.4-0.3c0.8-2,1.6-3.9,2.3-5.9c0.5-1.2,1-2.5,1.5-3.7c0.1-0.2,0.2-0.3,0.3-0.6c0.9-0.1,1.8-0.2,2.7,0
		c-0.1,0.2-0.1,0.4-0.1,0.5c-0.2,0.4-0.3,0.9-0.3,1.3c0.1,3.8,0.1,7.5,0.2,11.3c0,0.6,0.2,1,0.5,1.5c-0.1,0.1-0.2,0.2-0.3,0.2
		c-0.9,0.1-2.3,0.1-3,0c0-0.1-0.1-0.2,0-0.2c0.4-0.7,0.4-1.5,0.3-2.2c-0.1-2.2-0.1-4.4-0.1-6.6c0-0.2,0-0.4,0-0.6
		c-0.3-0.1-0.3,0-0.4,0.2c-0.7,1.6-1.3,3.2-2,4.8c-0.5,1.3-1,2.6-1.6,3.8c-0.5,1.2-0.5,1.2-1.8,1.2c-0.5,0-1,0.2-1.4-0.1
		c0-0.1-0.1-0.1,0-0.2c0.4-0.8,0.4-1.6,0.3-2.5c-0.1-3.3-0.2-6.6-0.3-9.9c0-0.7,0-1.5-0.7-2.1c0.3-0.1,0.4-0.3,0.6-0.3
		c0.8,0,1.7-0.1,2.5-0.1C137.3,87.3,137.4,87.4,137.6,87.4"/>
	<path clip-path="url(#SVGID_2_)" fill="#922935" d="M97.2,90.4c1,0,1.8-0.4,2.7-0.2c-0.1,0.5-0.2,1-0.2,1.5c0,0.5,0.1,1,0.1,1.5
		c0.3,3.2,0.6,6.4,0.9,9.5c0.1,0.7,0.3,1.4,0.7,2c-0.3,0.4-0.7,0.3-1.1,0.4c-0.3,0.1-0.7,0.1-1,0.2c-0.4,0-0.8,0.2-1.2-0.1
		c0-0.1,0-0.3,0.1-0.4c0.1-0.4,0.2-0.8,0.1-1.1c-0.3-2.6-0.5-5.1-0.8-7.7c0-0.2-0.1-0.3-0.1-0.5c-0.3,0.2-0.3,0.4-0.4,0.6
		c-0.8,2.4-1.5,4.8-2.2,7.3c-0.3,0.9-0.6,1.8-1,2.7c-0.8,0-1.7,0.3-2.6,0.2c0.1-0.3,0.1-0.4,0.1-0.6c0-0.4,0.1-0.8,0.1-1.1
		c-0.2-2-0.4-3.9-0.7-5.8c-0.2-1.5-0.3-2.9-0.5-4.4c-0.1-0.5-0.1-0.9-0.2-1.4c-0.1-0.4-0.4-0.8-0.6-1.3c0.3-0.3,0.7-0.3,1.1-0.3
		c0.4-0.1,0.8-0.1,1.1-0.2c0.4,0,0.8-0.2,1.1,0c0,0.1,0.1,0.1,0,0.1c-0.4,0.8-0.2,1.6-0.1,2.5c0.3,2.3,0.5,4.7,0.8,7
		c0,0.2-0.1,0.6,0.3,0.7c0.7-1.8,1.1-3.7,1.7-5.5C96,94.2,96.6,92.4,97.2,90.4"/>
	<path clip-path="url(#SVGID_2_)" fill="#922935" d="M120.4,103c-0.1-0.6,0-1.3,0.1-1.9c0.1-0.1,0.2-0.2,0.4-0.2
		c0.7-0.1,1.1-0.5,1.3-1.2c0.2-0.8,0.4-1.7,0.5-2.6c0.2-2.1,0.1-4.3-0.1-6.5c-0.1-0.7-0.1-1.5-0.5-2.1c-0.1-0.1,0-0.3-0.1-0.5
		c2.5-0.1,5-0.3,7.5-0.4c0.1,0,0.3,0,0.5,0.1c0,0.2,0,0.4-0.1,0.6c-0.2,0.5-0.3,1-0.2,1.5c0,0.4,0,0.8,0,1.3
		c0.1,3.2,0.3,6.4,0.4,9.7c0,0.6,0.2,1.1,0.5,1.6c-0.1,0.1-0.1,0.2-0.2,0.2c-0.9,0.2-2.5,0.2-3.2,0.1c0,0,0-0.1,0-0.1
		c0.4-1.4,0.2-2.8,0.1-4.2c-0.1-2.5-0.3-5.1-0.4-7.6c0-0.3-0.1-0.7-0.1-1.1c-0.9-0.1-1.7,0-2.5,0.1c-0.3,0.5-0.1,0.9-0.1,1.4
		c0.2,2,0.2,3.9,0.1,5.9c0,1.3-0.2,2.6-0.7,3.8c-0.2,0.5-0.4,0.9-0.7,1.3C122.4,103.1,121.7,103.3,120.4,103"/>
	<path clip-path="url(#SVGID_2_)" fill="#922935" d="M194.9,90.7c-0.1,0.2-0.1,0.3-0.1,0.4c-0.1,1.5-0.2,3.1-0.3,4.6
		c0,0.2,0.1,0.4,0.1,0.6c0.2,0,0.4,0,0.6-0.1c1.8-0.3,3-1.9,2.8-3.8c-0.1-0.9-0.6-1.5-1.5-1.7C196,90.6,195.5,90.6,194.9,90.7
		 M194.4,97.8c-0.2,2.2-0.7,4.1-0.2,6.2c-0.1,0-0.3,0.1-0.4,0.1c-1-0.2-2,0-2.9-0.3c0.2-0.6,0.4-1.2,0.5-1.8
		c0.1-0.6,0.1-1.2,0.2-1.8c0.2-2.7,0.4-5.4,0.6-8.2c0.1-1,0.2-1.9-0.3-2.8c0.2-0.1,0.3-0.2,0.4-0.2c1.8,0.1,3.6,0.2,5.4,0.5
		c0.5,0.1,1,0.3,1.5,0.6c1,0.5,1.6,1.5,1.7,2.6c0.3,2.2-0.9,4.1-3.1,4.8c-0.8,0.3-1.7,0.3-2.5,0.4C194.9,97.7,194.7,97.7,194.4,97.8
		"/>
	<path clip-path="url(#SVGID_2_)" fill="#922935" d="M219,106.5c0.1-1.3,0.4-2.3,0.8-3c0.2,0,0.3,0.1,0.4,0.3c0,0.1,0.1,0.2,0.1,0.3
		c0.3,1.4,1.6,2.1,2.9,2.1c0.7,0,1.4-0.2,1.8-0.8c0.4-0.5,0.7-1.1,0.9-1.7c0.3-0.7,0.4-1.5,0.6-2.2c-0.7-0.3-1.4-0.4-2.1-0.4
		c-0.7-0.1-1.4-0.1-2.1-0.2c0.1-0.6,0.2-1.2,0.2-1.9c0.4-0.1,0.7,0.1,1,0.2c0.3,0.1,0.7,0.2,1,0.2c0.3,0.1,0.7,0.1,1,0.2
		c0.3,0,0.7,0.1,1.1,0.1c0.3-1.4,0.4-2.6-0.1-3.9c-0.3-0.8-0.9-1.2-1.7-1.4c-1.4-0.3-2.3,0.1-3.1,1.3c-0.1,0.1-0.1,0.2-0.2,0.3
		c-0.1,0.1-0.3,0.2-0.4,0.2c-0.1,0-0.3-0.2-0.3-0.3c0-0.9,0-1.8,0-2.7c2-0.9,4.7-0.7,6.4,0.5c0.6,0.4,1.1,0.9,1.4,1.5
		c0.3,0.7,0.6,1.4,0.7,2.2c0.3,2.5,0,5-1,7.3c-0.2,0.6-0.6,1.1-0.9,1.6c-1.1,1.5-2.6,2.1-4.4,2C221.7,108,220.3,107.4,219,106.5"/>
	<path clip-path="url(#SVGID_2_)" fill="#922935" d="M157.7,101.4c-1.8,1-3.7,1.3-5.7,0.6c-1.4-0.5-2.4-1.5-3-2.9
		c-0.3-0.7-0.5-1.4-0.6-2.1c-0.3-2-0.3-4.1,0.4-6c0.3-0.8,0.7-1.6,1.2-2.2c1.6-1.9,4.7-2.7,7.4-1.3c0.4,0.2,0.6,0.5,0.6,1
		c-0.1,0.6-0.1,1.3-0.1,2c0,0.2-0.1,0.4-0.3,0.4c-0.3,0.1-0.4-0.1-0.5-0.3c-0.1-0.3-0.2-0.6-0.4-0.8c-0.8-1.3-2.3-1.7-3.6-0.8
		c-0.5,0.4-1,0.9-1.2,1.5c-0.2,0.5-0.4,1-0.5,1.5c-0.4,1.8-0.4,3.7,0,5.5c0.2,0.8,0.5,1.5,1.1,2.1c1.3,1.3,3.3,1.1,4.4-0.4
		c0.2-0.3,0.4-0.6,0.6-0.9c0.1-0.1,0.3-0.1,0.4-0.1c0.1,0,0.2,0.2,0.2,0.3C157.9,99.5,157.9,100.4,157.7,101.4"/>
	<path clip-path="url(#SVGID_2_)" fill="#922935" d="M182,88.3c-0.4,0.8-0.4,1.5-0.1,2.2c0.5,1.6,1.1,3.2,1.6,4.8
		c0,0.1,0.1,0.2,0.3,0.3c0.1-0.2,0.3-0.4,0.3-0.6c0.6-1.4,1.2-2.8,1.8-4.3c0.4-1.1,0.4-1.1,0.2-2.1c0.6-0.2,1.6-0.2,2.9,0
		c0.1,0,0.2,0.1,0.4,0.2c0,0.1,0,0.2-0.1,0.3c-0.7,0.4-1.1,1-1.5,1.7c-1.1,2.5-2.3,5-3.4,7.6c-0.3,0.7-0.6,1.5-1,2.2
		c-0.3,0.7-0.7,1.4-1.2,1.9c-0.9,0.9-1.8,1-3.1,0.6c-0.2-0.3-0.1-0.7,0-1c0.1-0.3,0.2-0.7,0.3-1.1c0.3,0,0.6,0,0.9,0
		c0.5,0,1-0.2,1.4-0.6c0.4-0.4,0.6-0.8,0.4-1.4c-0.5-1.4-1-2.7-1.5-4.1c-0.4-1.2-0.8-2.3-1.2-3.5c-0.2-0.5-0.4-1.1-0.6-1.6
		c-0.2-0.5-0.5-1-0.9-1.3c-0.2-0.1-0.2-0.3-0.1-0.5C178.5,87.9,181.3,88.1,182,88.3"/>
	<path clip-path="url(#SVGID_2_)" fill="#922935" d="M79.9,94.4c-0.8,0.1-1.5,0.4-2,0.9c-0.4,0.5-0.8,1-1.2,1.5
		c-0.3-0.6-0.5-1.8-0.5-3.1c1.6-0.5,3.2-0.6,4.8-0.9c1.6-0.3,3.3-0.5,4.9-0.7c0.4,0.7,0.7,2.3,0.6,3.2c-0.1-0.1-0.3-0.1-0.4-0.2
		c-0.2-0.2-0.4-0.4-0.7-0.6c-0.8-0.6-1.6-0.8-2.6-0.5c-0.2,0.5,0,0.9,0,1.3c0.4,3,0.8,5.9,1.2,8.9c0.1,0.5,0.1,1,0.2,1.5
		c0.1,0.5,0.4,1,0.6,1.6c-0.2,0.3-0.6,0.2-1,0.3c-0.4,0.1-0.8,0.1-1.3,0.2c-0.4,0.1-0.7,0.2-1.2,0c0.3-1.1,0-2.2-0.1-3.3
		c-0.4-2.5-0.7-5-1-7.5c-0.1-0.6-0.2-1.3-0.3-1.9C80.1,94.7,80,94.5,79.9,94.4"/>
	<path clip-path="url(#SVGID_2_)" fill="#922935" d="M168.2,87.6c2.7-0.1,5.1,0.2,7.5,0.3c0.3,0.8,0.3,2.3,0,3.2
		c-0.7-0.4-1.1-1.2-1.8-1.5c-0.8-0.3-1.5-0.6-2.4-0.6c-0.1,0.3-0.1,0.5-0.1,0.8c-0.1,3-0.2,5.9-0.3,8.9c0,0.3,0,0.7,0,1
		c-0.1,0.8-0.1,1.7,0.3,2.5c0,0.1,0,0.1,0,0.3c-0.5,0.2-1.1,0-1.7,0c-0.5,0-1.1,0.1-1.6-0.1c0-0.1-0.1-0.2-0.1-0.2
		c0.4-0.7,0.4-1.5,0.4-2.2c0.1-3,0.2-6.1,0.2-9.1C168.7,89.7,168.8,88.7,168.2,87.6"/>
	<path clip-path="url(#SVGID_2_)" fill="#922935" d="M162.8,41.7c0,0-0.1,0.1-0.1,0.1c0,0-0.1-0.1-0.1-0.1
		C162.6,41.6,162.7,41.6,162.8,41.7C162.8,41.6,162.8,41.6,162.8,41.7"/>
</g>
</svg>
